<?xml version="1.0" encoding="UTF-8"?>
<!DOCTYPE svg PUBLIC "-//W3C//DTD SVG 1.1//EN" "http://www.w3.org/Graphics/SVG/1.1/DTD/svg11.dtd">
<!-- Creator: CorelDRAW 2018 (64 Bit) -->
<svg xmlns="http://www.w3.org/2000/svg" xml:space="preserve" width="271.226mm" height="62.6083mm" version="1.1" style="shape-rendering:geometricPrecision; text-rendering:geometricPrecision; image-rendering:optimizeQuality; fill-rule:evenodd; clip-rule:evenodd"
viewBox="0 0 10890.35 2513.86"
 xmlns:xlink="http://www.w3.org/1999/xlink">
 <defs>
  <style type="text/css">
   <![CDATA[
    .fil0 {fill:#CD181F}
    .fil1 {fill:#373435;fill-rule:nonzero}
   ]]>
  </style>
 </defs>
 <g id="Camada_x0020_1">
  <metadata id="CorelCorpID_0Corel-Layer"/>
  <polygon class="fil0" points="3673.53,2513.86 4185.08,2513.86 4185.08,0 3673.53,0 "/>
  <path class="fil1" d="M-0 2027.43l0 -1518.75 865.36 0 -39.33 249.12 -520.09 0 0 351.82 434.86 0 0 249.12 -430.5 0 0 406.45 574.72 0 0 262.23 -885.03 0zm959.33 -1265.26l0 -253.49 1094.81 0 -50.26 253.49 -362.75 0 0 1265.26 -310.31 0 0 -1265.26 -371.49 0zm1223.74 1265.26l0 -1523.12 399.9 0c192.3,0 332.89,24.77 421.75,74.3 145.68,81.58 218.52,212.7 218.52,393.34 0,100.52 -22.94,190.12 -68.83,268.79 -45.89,78.67 -110.35,137.67 -193.39,177 -71.39,33.51 -172.63,50.26 -303.75,50.26l-168.26 0 0 559.42 -305.94 0zm500.42 -1276.18l-194.49 0 0 467.64 159.52 0c55.36,0 93.97,-2.91 115.82,-8.74 34.96,-10.2 64.46,-33.87 88.5,-71.02 24.04,-37.15 36.06,-90.69 36.06,-160.61 0,-71.39 -18.21,-127.11 -54.63,-167.17 -36.42,-40.06 -86.68,-60.09 -150.78,-60.09z"/>
  <path class="fil1" d="M4594.38 1760.33l0 -787.56 448.74 0 -20.4 129.18 -269.7 0 0 182.44 225.5 0 0 129.18 -223.23 0 0 210.77 298.03 0 0 135.98 -458.94 0zm568.86 0l0 -787.56 175.64 0 150.71 315.02c37.78,79.32 66.48,153.74 86.12,223.24 -7.55,-83.1 -11.71,-155.24 -12.46,-216.44l-3.4 -321.82 150.72 0 0 787.56 -165.45 0 -134.85 -301.43c-58.17,-130.7 -93.68,-216.82 -106.52,-258.37 3.78,44.57 6.42,118.99 7.93,223.24l4.53 336.56 -152.98 0zm633.45 -656.12l0 -131.45 567.72 0 -26.06 131.45 -188.11 0 0 656.12 -160.91 0 0 -656.12 -192.64 0zm628.92 656.12l0 -788.7 293.49 1.14c69.5,0 125.41,21.15 167.71,63.46 42.3,42.3 63.46,98.21 63.46,167.71 0,58.93 -17.19,109.73 -51.56,152.41 -34.37,42.68 -75.73,64.4 -124.08,65.16 12.09,9.82 23.04,20.77 32.86,32.86 27.95,35.51 91.03,137.49 189.24,305.96l-186.98 0c-26.44,-45.33 -50.99,-88.39 -73.66,-129.18 -39.28,-71.77 -67.43,-120.12 -84.42,-145.05 -17,-24.93 -32.29,-40.79 -45.89,-47.59 -7.55,-3.78 -15.86,-6.04 -24.93,-6.8l0 328.62 -155.24 0zm211.9 -660.64l-55.53 0 -1.13 213.04 53.26 0c60.43,0 100.47,-9.06 120.12,-27.2 19.64,-18.13 29.46,-44.2 29.46,-78.19 0,-43.82 -14.73,-73.66 -44.2,-89.52 -21.15,-12.09 -55.15,-18.13 -101.99,-18.13zm441.94 660.64l0 -787.56 448.74 0 -20.4 129.18 -269.7 0 0 182.44 225.5 0 0 129.18 -223.23 0 0 210.77 298.03 0 0 135.98 -458.94 0zm565.46 0l0 -789.83 207.37 0c99.72,0 172.62,12.84 218.7,38.53 75.55,42.3 113.32,110.29 113.32,203.97 0,52.13 -11.9,98.59 -35.7,139.38 -23.8,40.79 -57.23,71.39 -100.29,91.79 -37.02,17.37 -89.52,26.06 -157.51,26.06l-87.25 0 0 290.1 -158.65 0zm259.5 -661.78l-100.85 0 0 242.5 82.72 0c28.71,0 48.73,-1.51 60.06,-4.53 18.13,-5.29 33.43,-17.56 45.89,-36.83 12.46,-19.27 18.7,-47.03 18.7,-83.29 0,-37.02 -9.44,-65.91 -28.33,-86.69 -18.89,-20.77 -44.95,-31.16 -78.19,-31.16zm522.4 -97.45c46.84,-25.69 101.23,-38.53 163.18,-38.53 105.01,0 187.73,35.7 248.17,107.09 60.43,71.39 90.65,169.03 90.65,292.93 0,184.33 -58.55,308.98 -175.64,373.95 -43.82,24.18 -96.32,36.26 -157.51,36.26 -113.32,0 -198.69,-37.02 -256.1,-111.05 -60.44,-77.82 -90.66,-175.27 -90.66,-292.36 0,-85.36 15.68,-160.34 47.03,-224.94 31.35,-64.59 74.98,-112.37 130.88,-143.35zm299.16 183.58c-7.56,-24.93 -21.53,-46.46 -41.93,-64.59 -26.44,-23.42 -58.55,-35.13 -96.32,-35.13 -57.42,0 -98.21,23.04 -122.38,69.12 -26.44,50.62 -39.66,122.38 -39.66,215.3 0,135.23 23.42,220.22 70.26,254.97 24.17,18.13 55.52,27.2 94.05,27.2 55.15,0 95,-22.29 119.55,-66.86 24.55,-44.57 36.83,-117.1 36.83,-217.57 0,-77.81 -6.8,-138.63 -20.4,-182.44zm568.86 -235.7c101.99,0 189.62,26.44 262.9,79.32l-74.79 113.32c-66.48,-40.04 -127.67,-60.06 -183.58,-60.06 -32.49,0 -58.93,8.5 -79.32,25.5 -20.4,17 -30.6,38.72 -30.6,65.16 0,20.4 6.42,36.45 19.27,48.16 12.84,11.71 35.51,22.1 67.99,31.16l95.19 26.06c132.96,36.27 199.44,114.45 199.44,234.57 0,80.08 -29.65,144.3 -88.95,192.64 -59.3,48.35 -138.06,72.52 -236.27,72.52 -95.94,0 -185.46,-23.79 -268.56,-71.39l58.92 -123.52c80.83,42.3 152.98,63.46 216.44,63.46 92.17,0 138.25,-35.88 138.25,-107.66 0,-49.1 -34.37,-83.1 -103.12,-101.98l-87.25 -23.8c-75.54,-20.4 -127.29,-53.64 -155.24,-99.72 -21.91,-36.26 -32.86,-76.3 -32.86,-120.12 0,-71.77 26.25,-130.32 78.75,-175.65 52.5,-45.33 120.31,-67.99 203.41,-67.99zm325.23 155.24l0 -131.45 567.72 0 -26.06 131.45 -188.11 0 0 656.12 -160.91 0 0 -656.12 -192.64 0zm768.3 -103.12c46.84,-25.69 101.23,-38.53 163.18,-38.53 105.01,0 187.73,35.7 248.17,107.09 60.43,71.39 90.65,169.03 90.65,292.93 0,184.33 -58.55,308.98 -175.64,373.95 -43.82,24.18 -96.32,36.26 -157.51,36.26 -113.32,0 -198.69,-37.02 -256.1,-111.05 -60.44,-77.82 -90.66,-175.27 -90.66,-292.36 0,-85.36 15.68,-160.34 47.03,-224.94 31.35,-64.59 74.98,-112.37 130.88,-143.35zm299.16 183.58c-7.56,-24.93 -21.53,-46.46 -41.93,-64.59 -26.44,-23.42 -58.55,-35.13 -96.32,-35.13 -57.42,0 -98.21,23.04 -122.38,69.12 -26.44,50.62 -39.66,122.38 -39.66,215.3 0,135.23 23.42,220.22 70.26,254.97 24.17,18.13 55.52,27.2 94.05,27.2 55.15,0 95,-22.29 119.55,-66.86 24.55,-44.57 36.83,-117.1 36.83,-217.57 0,-77.81 -6.8,-138.63 -20.4,-182.44z"/>
 </g>
</svg>
