<?xml version="1.0" encoding="utf-8"?>
<!-- Generator: Adobe Illustrator 23.0.1, SVG Export Plug-In . SVG Version: 6.00 Build 0)  -->
<svg version="1.1" id="Camada_1" xmlns="http://www.w3.org/2000/svg" xmlns:xlink="http://www.w3.org/1999/xlink" x="0px" y="0px"
	 width="300px" height="100px" viewBox="0 0 300 100" style="enable-background:new 0 0 300 100;" xml:space="preserve">
<style type="text/css">
	
		.st0{fill-rule:evenodd;clip-rule:evenodd;fill:#040006;stroke:#040006;stroke-width:0.7087;stroke-linejoin:round;stroke-miterlimit:10;}
	.st1{fill:#040006;stroke:#040006;stroke-width:0.7087;stroke-linejoin:round;stroke-miterlimit:10;}
</style>
<g>
	<path class="st0" d="M48.4,44.6l-4.5-12.5l7.5-20.8c0.2-0.6,0.8-1,1.4-0.9c0.1,0,0.4,0,0.5,0l19.4-0.1l0,0h0.1l0,0h0.1l0,0h0.1h0.1
		h5.7h0.1l0,0H79v0.1l0,0h0.1l0,0l0,0l0,0l0,0l0,0h0.1l0,0l0,0l0,0l0,0l0,0l0,0l0,0l0,0l0,0l0,0l0,0l0,0l0,0l0,0l0,0l0,0l0,0l0,0
		l0,0l0,0l0,0l0,0l0,0l0,0l0,0l0,0l0,0l0,0l0,0l0,0l0,0l0,0l0,0l0,0l0,0l0,0l0,0l0,0l0,0l0,0l0,0v0.1l0,0l0,0l0,0l0,0l0,0l0,0l0,0
		v0.1l0,0l0,0l0,0l0,0l0,0v0.1l0,0l0,0l0,0l0,0l0,0v0.1l0,0l0,0l0,0v0.8l0,0l0,0l0,0v0.1l0,0l0,0l0,0v0.1l0,0l0,0l0,0v0.1l0,0v76.1
		l0,0l0,0l0,0v0.1l0,0l0,0l0,0V88l0,0l0,0l0,0V88l0,0l0,0l0,0v0.1l0,0l0,0l0,0v0.1l0,0l0,0l0,0l0,0l0,0v0.1l0,0l0,0l0,0l0,0l0,0l0,0
		l0,0v0.1l0,0l0,0l0,0l0,0l0,0l0,0l0,0l0,0l0,0l0,0l0,0l0,0l0,0l0,0l0,0l0,0l0,0l0,0l0,0l0,0l0,0l0,0l0,0l0,0l0,0l0,0l0,0l0,0l0,0
		l0,0l0,0l0,0l0,0l0,0l0,0l0,0l0,0l0,0l0,0l0,0l0,0l0,0l0,0l0,0l0,0h-0.1l0,0l0,0l0,0l0,0l0,0H79l0,0l0,0H79l0,0h-0.1l0,0h-0.1l0,0
		h-0.1l0,0h-0.1l0,0h-0.2h-2.8l0,0h-2.8l0,0l0,0l0,0l0,0l0,0l0,0l0,0l0,0l0,0l0,0l0,0l0,0l0,0l0,0l0,0l0,0l0,0l0,0l0,0l0,0l0,0l0,0
		l0,0l0,0l0,0l0,0l0,0l0,0l0,0l0,0l0,0l0,0l0,0l0,0l0,0l0,0l0,0l0,0l0,0l0,0l0,0l0,0l0,0l0,0l0,0l0,0l0,0l0,0l0,0l0,0l0,0l0,0l0,0
		l0,0l0,0l0,0l0,0l0,0l0,0c-6.1,0-19.7-0.1-21.6-0.1c-0.1,0-0.3,0-0.4,0c-0.2,0-0.4,0-0.6-0.1c-0.4-0.1-0.6-0.4-0.8-0.7L24.5,17.9
		H9.3H8.6V80h17.9l7.1-19.9l4.5,12.5l-5.3,14.9c-0.3,0.7-1,0.8-1.7,0.8L7.3,88.4c-0.1,0-0.1,0-0.1,0H5.2H1.5c-0.8,0-1.4-0.6-1.4-1.4
		V11.7c0-0.8,0.6-1.4,1.4-1.4h2.8l0,0h2.8c0.1,0,0.1,0,0.1,0c6.1,0,19.7,0.1,21.6,0.1c0.1,0,0.3,0,0.4,0c0.2,0,0.4,0,0.6,0.1
		c0.4,0.1,0.6,0.4,0.8,0.7l24.9,69.6h15.8V18.7H57.8L48.4,44.6L48.4,44.6z"/>
	<g>
		<polygon class="st1" points="88,88.1 98.8,88.1 98.8,27.8 149.7,89.4 149.7,10.1 138.9,10.1 138.9,57.9 98.6,10.1 88,10.1 		"/>
		<polygon class="st1" points="299.5,10.1 286.8,10.1 273.2,46.3 278.6,61.2 		"/>
		<polygon class="st1" points="247.5,10.1 234.7,10.1 267.1,89.4 272.4,76.6 		"/>
		<polygon class="st1" points="250.7,50.6 245.4,63.2 224.6,9.5 212,9.5 244.8,90.1 256,63.5 		"/>
		<polygon class="st1" points="174.9,88.1 186.3,88.1 186.3,20.7 205.8,20.7 205.8,10.1 155.5,10.1 155.5,20.7 174.9,20.7 		"/>
	</g>
</g>
</svg>
