<?xml version="1.0" encoding="utf-8"?>
<!-- Generator: Adobe Illustrator 16.0.0, SVG Export Plug-In . SVG Version: 6.00 Build 0)  -->
<!DOCTYPE svg PUBLIC "-//W3C//DTD SVG 1.1//EN" "http://www.w3.org/Graphics/SVG/1.1/DTD/svg11.dtd">
<svg version="1.1" id="Layer_1" xmlns="http://www.w3.org/2000/svg" xmlns:xlink="http://www.w3.org/1999/xlink" x="0px" y="0px"
	 width="150px" height="50px" viewBox="0 0 150 50" enable-background="new 0 0 150 50" xml:space="preserve">
<g>
	<path fill="#FFFFFF" stroke="#FFFFFF" stroke-width="0.7087" stroke-linejoin="round" stroke-miterlimit="10" d="M26.4,22.4
		l-2.2-6.2l3.7-10.4c0.1-0.3,0.4-0.5,0.7-0.4c0.1,0,0.2,0,0.2,0h9.6l0,0l0,0l0,0l0,0l0,0l0,0l0,0h2.8l0,0l0,0h0.2l0,0l0,0l0,0l0,0
		l0,0l0,0l0,0l0,0l0,0l0,0l0,0l0,0l0,0l0,0l0,0l0,0l0,0l0,0l0,0l0,0l0,0l0,0l0,0l0,0l0,0l0,0l0,0l0,0l0,0l0,0l0,0l0,0l0,0l0,0l0,0
		l0,0l0,0l0,0l0,0l0,0l0,0l0,0l0,0l0,0l0,0l0,0l0,0l0,0l0,0l0,0l0,0l0,0l0,0l0,0l0,0l0,0l0,0l0,0l0,0l0,0l0,0l0,0l0,0l0,0l0,0l0,0
		l0,0l0,0l0,0l0,0l0,0l0,0l0,0l0,0l0,0l0,0l0,0l0,0l0,0l0,0l0,0l0,0l0,0l0,0l0,0l0,0l0,0l0,0v38l0,0l0,0l0,0l0,0l0,0l0,0l0,0l0,0
		l0,0l0,0l0,0l0,0l0,0l0,0l0,0l0,0l0,0l0,0l0,0l0,0l0,0l0,0l0,0l0,0l0,0l0,0l0,0l0,0l0,0l0,0l0,0l0,0l0,0l0,0l0,0l0,0l0,0l0,0l0,0
		l0,0l0,0l0,0l0,0l0,0l0,0l0,0l0,0l0,0l0,0l0,0l0,0l0,0l0,0l0,0l0,0l0,0l0,0l0,0l0,0l0,0l0,0l0,0l0,0l0,0l0,0l0,0l0,0l0,0l0,0l0,0
		l0,0l0,0l0,0l0,0l0,0l0,0l0,0l0,0l0,0l0,0l0,0l0,0l0,0l0,0l0,0l0,0l0,0l0,0l0,0l0,0l0,0l0,0l0,0l0,0l0,0l0,0l0,0l0,0l0,0H40l0,0
		h-1.4l0,0l0,0l0,0l0,0l0,0l0,0l0,0l0,0l0,0l0,0l0,0l0,0l0,0l0,0l0,0l0,0l0,0l0,0l0,0l0,0l0,0l0,0l0,0l0,0l0,0l0,0l0,0l0,0l0,0l0,0
		l0,0l0,0l0,0l0,0l0,0l0,0l0,0l0,0l0,0l0,0l0,0l0,0l0,0l0,0l0,0l0,0l0,0l0,0l0,0l0,0l0,0l0,0l0,0l0,0l0,0l0,0l0,0l0,0l0,0
		c-3,0-9.8,0-10.7,0c-0.1,0-0.1,0-0.2,0c-0.1,0-0.2,0-0.3-0.102c-0.2-0.1-0.3-0.199-0.4-0.3L14.5,9.5H7H6.7v31h8.9l3.5-9.9l2.2,6.2
		l-2.6,7.4C18.6,44.6,18.2,44.6,17.8,44.6L6,44.7c0,0,0,0-0.1,0H5H3.2c-0.4,0-0.7-0.3-0.7-0.7V6c0-0.4,0.3-0.7,0.7-0.7h1.4l0,0H6
		c0,0,0,0,0.1,0c3,0,9.7,0,10.7,0c0.1,0,0.1,0,0.2,0s0.2,0,0.3,0.1c0.2,0.1,0.3,0.2,0.4,0.3L30,40.5h7.8v-31H31L26.4,22.4L26.4,22.4
		z"/>
	<path fill="#FFFFFF" stroke="#FFFFFF" stroke-width="0.7087" stroke-linejoin="round" stroke-miterlimit="10" d="M45.8,35.4h2.9
		V19.3l13.4,16.5V14.6h-2.9v12.8L48.6,14.6h-2.8V35.4L45.8,35.4z M126.7,14.6h-3.4l-3.6,9.6l1.5,4L126.7,14.6z M112.9,14.6h-3.4
		l8.6,21.2l1.4-3.5L112.9,14.6z M113.7,25.4l-1.4,3.4l-5.6-14.4h-3.3l8.699,21.5l3-7.102L113.7,25.4L113.7,25.4z M136.6,35.9
		c6.301,0,10.9-4.9,10.9-10.9s-4.6-11-10.9-11c-6.3,0-10.898,4.9-10.898,11C125.8,31.1,130.4,35.9,136.6,35.9L136.6,35.9z
		 M136.6,17.1c4.4,0,7.602,3.4,7.602,7.9s-3.2,7.9-7.602,7.9c-4.398,0-7.6-3.4-7.6-7.9C129,20.4,132.3,17.1,136.6,17.1L136.6,17.1z
		 M79,35.4h3.2l-8.8-21.2l-8.8,21.2h3.2l1.8-4.4H74l-1.1-2.7h-2.2l2.8-7C75.5,26.6,77,30.2,79,35.4L79,35.4z M86.6,35.4h3v-18h5.2
		v-2.8H81.4v2.8H86.6V35.4L86.6,35.4z M97.8,35.4h3V14.6h-3V35.4z"/>
</g>
</svg>
